# xmcd CD database file
#
# Track frame offsets:
#	182
#	16182
#	31062
#	48300
#	68590
#	85112
#	100675
#	118520
#	134917
#	148902
#
# Disc length: 2179 seconds
#
# Revision: 2
# Processed by: cddbd v1.4PL0 Copyright (c) Steve Scherf et al.
# Submitted via: CDex 1.40PlusFr
#
DISCID=8008810a
DTITLE=Les Clam's - Java Faire Mal...!
DYEAR=1900
DGENRE=Rock
TTITLE0=Trop bon, trop con
TTITLE1=La Java adultère
TTITLE2=Du bistrot du port
TTITLE3=Deux mots
TTITLE4=Jean-Marie and Marie-Jeanne
TTITLE5=Chanson à boire
TTITLE6=Germain
TTITLE7=J't'avais bien dit!
TTITLE8=Retour de manivelle
TTITLE9=Tango des B.D.
EXTD=ID3G: 17
EXTT0=
EXTT1=
EXTT2=
EXTT3=
EXTT4=
EXTT5=
EXTT6=
EXTT7=
EXTT8=
EXTT9=
PLAYORDER=
